<svg xmlns="http://www.w3.org/2000/svg" xmlns:xlink="http://www.w3.org/1999/xlink" fill="none" version="1.1" width="14" height="14" viewBox="0 0 14 14"><defs><clipPath id="master_svg0_2_01900"><rect x="0" y="0" width="14" height="14" rx="0"/></clipPath></defs><g clip-path="url(#master_svg0_2_01900)"><g><path d="M7.97378921875,7.154406083984375L13.43294921875,1.724796083984375C13.69094921875,1.467385083984375,13.69204921875,1.0508440839843751,13.43514921875,0.793430083984375C13.17774921875,0.533746283984375,12.76244921875,0.533746283984375,12.50444921875,0.789998083984375L7.04468921875,6.221846083984375L1.63156921875,0.7928150839843751C1.3758642187499999,0.536535783984375,0.9582162187500001,0.534266183984375,0.70077421875,0.791680083984375C0.44336031875,1.047960083984375,0.44278611875,1.465034083984375,0.69963921875,1.722476083984375L6.11047921875,7.150966083984375L0.65472821875,12.578336083984375C0.39673941875,12.834536083984375,0.39559101875,13.251136083984376,0.6518972187500001,13.509636083984375C0.7809052187500001,13.639836083984376,0.94908321875,13.704036083984375,1.11840921875,13.704036083984375C1.28662821875,13.704036083984375,1.45481921875,13.639736083984374,1.58323921875,13.511936083984375L7.04067921875,8.083456083984375L12.50214921875,13.561936083984374C12.63114921875,13.692036083984375,12.79934921875,13.756236083984374,12.96864921875,13.756236083984374C13.13684921875,13.756236083984374,13.30504921875,13.692036083984375,13.43284921875,13.564236083984374C13.69034921875,13.306736083984376,13.69084921875,12.890236083984375,13.43404921875,12.632836083984374L7.97374921875,7.154356083984375L7.97378921875,7.154406083984375Z" fill="#C9C9D0" fill-opacity="1"/></g></g></svg>