<svg xmlns="http://www.w3.org/2000/svg" xmlns:xlink="http://www.w3.org/1999/xlink" fill="none" version="1.1" width="20" height="20" viewBox="0 0 20 20"><defs><clipPath id="master_svg0_2_8334"><rect x="0" y="0" width="20" height="20" rx="0"/></clipPath></defs><g clip-path="url(#master_svg0_2_8334)"><g><path d="M14.6679234375,3.074218876953125C15.5507234375,3.199218876953125,16.4687234375,3.039068876953125,17.1894234375,3.162108876953125C18.3554234375,3.361328876953125,18.9472234375,4.353518876953125,18.8203234375,5.814458876953125L17.4082234375,5.814458876953125C17.3691234375,8.406248876953125,17.3867234375,10.972648876953125,17.3867234375,13.574248876953124C17.3867234375,14.886748876953124,17.4961234375,16.265648876953126,17.3652234375,17.443348876953124C17.2422234375,18.554648876953124,16.4257234375,19.232448876953125,15.4316234375,19.398448876953125C14.4492234375,19.562548876953127,13.1465234375,19.441448876953125,12.0625234375,19.441448876953125C9.7890534375,19.441448876953125,7.4863134375,19.486348876953127,5.2597534375,19.441448876953125C4.1757734375,19.419948876953125,3.3749934375,19.076148876953123,2.8906134375,18.419948876953125C2.4062434374999997,17.763648876953123,2.4550634375,16.771448876953126,2.4550634375,15.593748876953125L2.4550634375,5.814458876953125L1.1074113375,5.814458876953125C0.8886614375,4.470708876953125,1.4706924375,3.503908876953125,2.4550634375,3.185548876953125C3.1796734375,2.951178876953125,4.1445234375,3.140628876953125,5.1718634375,3.076178876953125C5.0878834375,1.628908876953125,5.1679534375,0.531253876953125,6.4101434375,0.380862776953125C6.9667834375,0.314456476953125,7.7089734375,0.380862776953125,8.3886634375,0.380862776953125L12.3437234375,0.380862776953125C13.0976234375,0.380862776953125,13.8691234375,0.308597176953125,14.2558234375,0.6425818769531251C14.7890234375,1.1015658769531251,14.6504234375,2.166018876953125,14.6679234375,3.074218876953125ZM6.5175634375,1.812498876953125L6.5175634375,3.117188876953125L13.3203234375,3.117188876953125L13.3203234375,1.748048876953125L6.5390534375,1.748048876953125C6.5136634375,1.751958876953125,6.5156134375,1.781248876953125,6.5175634375,1.812498876953125ZM5.1913934375,5.964848876953125L5.1913934375,14.246048876953125C5.1913934375,14.953148876953126,5.0292834375,16.460948876953125,5.4531134375,16.767548876953125C5.6210834375,16.888648876953123,6.0566334375,16.908248876953124,6.2578034375,16.767548876953125C6.6953034375,16.462848876953124,6.5410034375,14.998048876953124,6.5410034375,14.267548876953125L6.5410034375,5.900398876953125L5.2148334375,5.900398876953125C5.1874934375,5.902348876953125,5.1894434375,5.933598876953125,5.1913934375,5.964848876953125ZM9.2343634375,5.964848876953125L9.2343634375,13.984348876953124C9.2343634375,14.617148876953125,9.0878834375,16.115248876953125,9.3437434375,16.548848876953127C9.5117034375,16.835948876953125,10.0820234375,16.964848876953123,10.3652234375,16.744148876953126C10.7499934375,16.443348876953124,10.5820234375,14.857448876953125,10.5820234375,14.201148876953125L10.5820234375,5.898438876953125L9.2558534375,5.898438876953125C9.2304534375,5.902348876953125,9.2324134375,5.933598876953125,9.2343634375,5.964848876953125ZM13.3203234375,5.964848876953125L13.3203234375,14.353548876953125C13.3203234375,15.212848876953124,13.1523234375,16.531248876953125,13.7109234375,16.765648876953126C13.9550234375,16.869148876953126,14.3867234375,16.789048876953125,14.4941234375,16.701148876953123C14.8593234375,16.400348876953124,14.6894234375,14.791048876953125,14.6894234375,14.158248876953126L14.6894234375,5.900398876953125L13.3418234375,5.900398876953125C13.3164234375,5.902348876953125,13.3183234375,5.933598876953125,13.3203234375,5.964848876953125Z" fill="#E7E7E7" fill-opacity="1"/></g></g></svg>