<svg xmlns="http://www.w3.org/2000/svg" xmlns:xlink="http://www.w3.org/1999/xlink" fill="none" version="1.1" width="20" height="20" viewBox="0 0 20 20"><defs><clipPath id="master_svg0_2_8336"><rect x="0" y="0" width="20" height="20" rx="0"/></clipPath></defs><g clip-path="url(#master_svg0_2_8336)"><g><path d="M15.933625,6.22656171875L13.787125,4.082031718750001C13.406225,3.70117171875,13.406225,3.0820317187499997,13.787125,2.70117171875L14.953125,1.53515671875C15.334025,1.15429691875,15.953125,1.15429691875,16.334025,1.53515671875L18.478525,3.67969171875C18.859425,4.060541718750001,18.859425,4.67969171875,18.478525,5.06055171875L17.312525,6.22656171875C16.931625,6.60937171875,16.314425,6.60937171875,15.933625,6.22656171875ZM14.671825,8.85547171875C15.039025,8.488281718749999,15.130825,7.98633171875,14.876925,7.73437171875L12.267625,5.123041718750001C12.015625,4.87109171875,11.513625,4.96289171875,11.146485,5.32812171875L1.587891,14.63281171875C1.404297,14.81641171875,1.2890625,15.05081171875,1.265625,15.28711171875L1.26953125,17.90041171875C1.2226562,18.39261171875,1.609375,18.77931171875,2.101562,18.73241171875L4.714845,18.75391171875C4.951175,18.73051171875,5.187495,18.61521171875,5.369145,18.43161171875L14.671825,8.85547171875ZM17.751925,16.24411171875L10.933595,16.24411171875C10.671875,16.24411171875,10.421875,16.347611718750002,10.238285,16.53321171875C9.904295,16.86911171875,9.353515,17.43751171875,8.894535000000001,17.91411171875C8.597655,18.22261171875,8.816405,18.73631171875,9.244145,18.73631171875L17.746125,18.73631171875C18.292925,18.73631171875,18.740225,18.28911171875,18.740225,17.74221171875L18.740225,17.22851171875C18.736325,16.687511718750002,18.294925,16.24411171875,17.751925,16.24411171875Z" fill="#E7E7E7" fill-opacity="1"/></g></g></svg>