<svg xmlns="http://www.w3.org/2000/svg" xmlns:xlink="http://www.w3.org/1999/xlink" fill="none" version="1.1" width="20" height="20" viewBox="0 0 20 20"><defs><clipPath id="master_svg0_2_7776"><rect x="0" y="0" width="20" height="20" rx="0"/></clipPath></defs><g clip-path="url(#master_svg0_2_7776)"><g><path d="M9.99983390625,1.6666717529296875C14.60230390625,1.6666717529296875,18.33320390625,5.397501752929688,18.33320390625,10.000001752929688C18.33320390625,14.602471752929688,14.60230390625,18.333371752929686,9.99983390625,18.333371752929686C5.39733390625,18.333371752929686,1.66650390625,14.602471752929688,1.66650390625,10.000001752929688C1.66650390625,5.397501752929688,5.39733390625,1.6666717529296875,9.99983390625,1.6666717529296875ZM8.53567390625,12.416671752929688L6.76650390625,10.647501752929687C6.44283390625,10.312381752929687,5.90728390625,10.307721752929687,5.5778339062499995,10.637171752929687C5.24839390625,10.966611752929687,5.253043906249999,11.502171752929687,5.588173906250001,11.825871752929688L7.94567390625,14.183371752929688C8.27108390625,14.508671752929688,8.79858390625,14.508671752929688,9.12400390625,14.183371752929688L15.01570390625,8.290841752929687C15.35900390625,7.968931752929688,15.36780390625,7.426791752929687,15.03510390625,7.093901752929687C14.70250390625,6.761001752929688,14.16030390625,6.7694317529296875,13.83820390625,7.1125017529296874L8.53483390625,12.414971752929688L8.53567390625,12.416671752929688Z" fill="#0D7E48" fill-opacity="1"/></g></g></svg>