<svg xmlns="http://www.w3.org/2000/svg" xmlns:xlink="http://www.w3.org/1999/xlink" fill="none" version="1.1" width="20" height="20" viewBox="0 0 20 20"><defs><clipPath id="master_svg0_2_7772"><rect x="0" y="0" width="20" height="20" rx="0"/></clipPath></defs><g clip-path="url(#master_svg0_2_7772)"><g><path d="M10,1.25C5.16758,1.25,1.25,5.16758,1.25,10C1.25,14.8324,5.16758,18.75,10,18.75C14.8324,18.75,18.75,14.8324,18.75,10C18.75,5.16758,14.8324,1.25,10,1.25ZM10,15.9375C9.61168,15.9375,9.29688,15.6227,9.29688,15.2344C9.29688,14.8461,9.61167,14.5313,10,14.5313C10.38833,14.5313,10.70312,14.8461,10.70312,15.2344C10.70312,15.6227,10.38832,15.9375,10,15.9375ZM11.01231,5.15723L10.70312,12.4219C10.70312,12.8102,10.38833,13.125,10,13.125C9.61167,13.125,9.29688,12.8102,9.29688,12.4219L8.9877,5.15723C8.98574,5.13125,8.98438,5.10488,8.98438,5.07812C8.98438,4.51721,9.43909,4.0625,10,4.0625C10.56091,4.0625,11.01562,4.51721,11.01562,5.07812C11.01562,5.10488,11.01426,5.13125,11.01231,5.15723Z" fill="#925B19" fill-opacity="1"/></g></g></svg>